<?xml version="1.0" standalone="no"?>
<!DOCTYPE svg PUBLIC "-//W3C//DTD SVG 20010904//EN"
 "http://www.w3.org/TR/2001/REC-SVG-20010904/DTD/svg10.dtd">
<svg version="1.0" xmlns="http://www.w3.org/2000/svg"
 width="256.000000pt" height="256.000000pt" viewBox="0 0 256.000000 256.000000"
 preserveAspectRatio="xMidYMid meet">
<metadata>
Created by potrace 1.14, written by Peter Selinger 2001-2017
</metadata>
<g transform="translate(0.000000,256.000000) scale(0.100000,-0.100000)"
fill="#000000" stroke="none">
<path d="M0 2429 c0 -76 4 -128 9 -125 5 4 11 1 13 -6 3 -8 17 -5 47 10 42 22
44 22 102 6 33 -9 62 -20 65 -25 2 -4 -12 -11 -33 -15 -46 -8 -78 -23 -51 -24
9 0 41 5 69 11 47 10 54 10 66 -7 8 -11 21 -18 29 -16 19 4 38 -11 66 -51 l21
-30 -79 5 c-55 4 -71 2 -54 -4 14 -5 54 -11 90 -13 37 -2 86 -12 110 -23 25
-10 58 -24 73 -31 15 -6 26 -15 23 -20 -4 -5 2 -7 12 -5 11 4 23 -5 35 -26 11
-17 24 -29 30 -27 12 4 57 -23 85 -50 7 -7 33 -13 58 -13 47 0 66 -18 45 -44
-6 -7 -7 -17 -3 -21 4 -5 2 -5 -5 -1 -6 3 -14 2 -18 -4 -12 -20 -41 -9 -79 30
-37 38 -66 51 -66 30 0 -5 9 -10 19 -10 11 0 35 -18 54 -40 37 -43 56 -48 100
-25 26 14 28 13 37 -11 16 -40 12 -65 -10 -71 -19 -5 -18 -6 3 -35 16 -21 22
-44 22 -79 0 -27 3 -49 8 -49 4 0 7 -9 7 -20 0 -11 -5 -20 -12 -20 -9 0 -9 -3
0 -12 7 -7 12 -23 12 -37 l0 -24 -25 23 c-22 20 -69 41 -50 22 4 -4 10 -7 15
-7 13 0 70 -76 70 -93 0 -10 -8 -13 -32 -10 l-31 5 31 -26 c25 -21 32 -35 34
-69 1 -27 -3 -46 -11 -51 -9 -6 -10 -11 -2 -15 25 -16 6 -119 -27 -144 -15
-12 -15 -13 6 -19 19 -5 22 -10 17 -34 -9 -42 0 -36 25 17 12 25 24 43 26 42
2 -2 4 -31 5 -64 2 -87 9 -96 72 -88 82 9 120 24 150 57 22 24 27 38 22 57 -3
14 -7 32 -9 40 -2 8 -6 22 -9 30 -25 72 -32 130 -29 253 2 73 4 81 32 109 34
33 33 53 0 23 -28 -25 -45 -8 -30 29 9 24 15 28 42 24 25 -4 36 1 57 25 14 17
39 43 55 59 44 44 24 33 -39 -21 -39 -32 -64 -47 -76 -44 -40 11 -33 41 24
102 34 37 43 41 85 41 32 0 55 7 72 21 21 17 22 19 3 10 -25 -13 -82 -14 -100
-3 -15 10 23 111 55 145 23 24 75 117 69 123 -2 2 -9 -6 -16 -19 -7 -13 -21
-28 -32 -35 -34 -21 -21 6 26 57 33 35 43 53 39 69 -4 13 2 31 15 48 l21 26
10 -26 c13 -36 40 -24 40 18 0 41 25 78 39 57 5 -8 12 -32 16 -55 6 -36 8 -38
15 -19 6 14 23 26 47 32 51 15 50 15 57 -20 5 -27 9 -30 31 -25 21 5 29 0 55
-35 16 -23 30 -36 31 -28 0 8 5 4 11 -8 15 -32 28 -29 28 6 0 31 21 54 28 32
2 -7 14 -24 26 -38 l22 -26 -4 37 c-2 20 -1 36 2 36 16 0 71 -38 75 -50 2 -8
10 -37 17 -64 14 -52 24 -70 24 -44 0 9 7 19 16 22 10 4 14 14 11 25 -3 14 -1
18 9 14 8 -3 14 1 14 8 0 11 3 11 10 -1 6 -9 10 -11 10 -3 0 7 7 10 15 7 8 -4
12 -10 9 -15 -3 -5 -1 -9 3 -9 8 0 33 -56 33 -74 0 -5 -9 -6 -20 -3 -15 4 -20
0 -20 -16 0 -12 5 -29 10 -37 8 -12 10 -9 10 13 0 36 37 39 46 3 7 -29 -12
-70 -30 -63 -8 3 -11 -4 -8 -23 4 -31 -29 -63 -56 -53 -10 4 -13 2 -8 -5 4 -7
13 -12 21 -12 8 0 20 -8 27 -17 19 -25 78 -78 78 -70 0 3 -18 25 -40 47 -41
41 -52 67 -26 57 11 -4 13 -1 9 11 -6 16 -5 16 14 0 11 -10 24 -18 30 -18 28
0 48 -49 44 -114 -1 -16 -3 -17 -18 -5 -15 13 -15 12 -1 -16 8 -16 18 -48 22
-70 19 -114 28 -145 42 -145 8 0 14 -5 14 -11 0 -5 -4 -7 -10 -4 -6 3 -10 -1
-10 -9 0 -9 4 -15 9 -14 5 2 16 -6 24 -17 14 -18 14 -17 11 10 -4 31 41 171
58 181 5 3 16 -2 23 -12 9 -11 14 -14 15 -6 0 24 19 11 25 -18 6 -29 25 -52
25 -31 0 6 7 8 15 5 20 -8 19 6 -1 20 -11 9 -13 17 -6 36 9 22 11 23 17 8 5
-14 11 -15 26 -8 15 9 18 8 12 -7 -3 -10 -3 -15 2 -11 4 4 14 3 22 -3 11 -10
13 73 13 500 l0 511 -1280 0 -1280 0 0 -131z m385 -189 c3 -5 2 -10 -4 -10 -5
0 -13 5 -16 10 -3 6 -2 10 4 10 5 0 13 -4 16 -10z m65 -55 c8 -9 5 -14 -10
-18 -14 -4 -26 3 -40 24 l-21 28 30 -10 c16 -6 35 -16 41 -24z m870 -44 c-7
-22 -19 -42 -26 -45 -8 -3 -14 -19 -14 -35 0 -17 -10 -55 -22 -86 -18 -42 -28
-55 -44 -55 -13 0 -28 -14 -43 -40 -30 -53 -56 -55 -46 -2 10 47 13 71 14 100
1 23 106 131 140 144 10 3 24 20 31 37 18 44 26 29 10 -18z m-272 -3 c-2 -13
-7 -23 -13 -23 -5 0 -11 10 -13 23 -2 15 2 22 13 22 11 0 15 -7 13 -22z m212
2 c0 -10 -31 -23 -38 -15 -8 7 19 35 29 29 5 -3 9 -9 9 -14z m-94 -36 l-7 -26
25 28 26 29 -11 -32 c-13 -40 -31 -55 -69 -59 -32 -4 -36 2 -20 26 9 13 11 13
20 0 8 -12 10 -10 10 11 0 22 16 49 28 49 2 0 1 -12 -2 -26z m-420 -56 c16
-18 40 -45 54 -61 l24 -27 -38 4 c-21 3 -58 21 -86 41 -44 32 -48 38 -37 56
18 28 49 23 83 -13z m374 -89 c0 -45 -15 -45 -22 1 -4 25 0 33 20 39 1 1 2
-17 2 -40z m-12 -88 c5 -51 -5 -64 -26 -38 -13 16 -25 93 -17 108 14 21 38
-18 43 -70z m1310 -218 c13 -26 14 -36 3 -59 -12 -27 -12 -27 -26 -6 -17 23
-19 38 -16 102 2 42 3 43 13 20 6 -14 18 -39 26 -57z m-91 -10 c-3 -10 -5 -4
-5 12 0 17 2 24 5 18 2 -7 2 -21 0 -30z m-40 -110 c-3 -10 -5 -4 -5 12 0 17 2
24 5 18 2 -7 2 -21 0 -30z"/>
<path d="M89 1734 c-72 -65 -95 -91 -86 -100 7 -7 51 32 111 100 32 36 56 66
53 66 -2 0 -38 -30 -78 -66z"/>
<path d="M787 1759 c8 -8 16 -8 30 0 16 9 14 10 -11 11 -22 0 -27 -3 -19 -11z"/>
<path d="M785 1620 c3 -5 11 -10 16 -10 6 0 7 5 4 10 -3 6 -11 10 -16 10 -6 0
-7 -4 -4 -10z"/>
<path d="M1536 1388 c-3 -13 -6 -48 -6 -78 0 -44 -5 -60 -23 -80 -24 -26 -41
-70 -28 -70 4 0 4 -30 -1 -67 -4 -38 -6 -75 -3 -83 2 -8 5 -44 6 -80 2 -69 12
-92 35 -83 9 3 14 -1 14 -13 0 -16 2 -17 10 -4 6 10 10 11 10 3 0 -7 8 -13 17
-13 23 0 63 39 57 55 -3 8 -1 23 6 34 6 12 11 68 10 129 0 158 -3 187 -17 184
-7 -1 -13 4 -13 12 0 8 -5 16 -11 18 -6 2 -12 32 -14 66 -3 79 -34 123 -49 70z"/>
<path d="M478 904 c-3 -21 -12 -55 -20 -74 l-15 -35 -17 30 -17 30 5 -35 c2
-19 7 -42 11 -52 8 -21 -21 -28 -54 -14 -18 8 -25 8 -29 -2 -2 -6 -12 -12 -22
-12 -10 0 -21 -4 -25 -10 -3 -5 -15 -6 -28 -2 -12 5 -29 8 -37 7 -8 0 -18 3
-21 7 -3 5 -21 9 -40 10 -27 1 -39 9 -60 37 -14 20 -44 46 -67 59 l-42 23 0
-435 0 -436 1280 0 1280 0 -2 347 c-3 298 -5 347 -18 350 -13 4 -13 3 0 -6 8
-6 10 -11 4 -11 -5 0 -15 5 -22 12 -9 9 -12 9 -12 -4 0 -11 -11 -15 -42 -15
-31 0 -38 2 -23 8 18 7 17 8 -6 8 -14 1 -30 -4 -36 -10 -8 -8 -17 -8 -30 -1
-14 8 -23 6 -42 -11 -13 -12 -21 -17 -18 -11 4 7 1 14 -6 17 -20 7 -99 -1
-109 -11 -7 -7 -21 -7 -42 0 -71 22 -95 21 -106 -4 -10 -23 -11 -23 -6 0 3 18
0 22 -19 22 -13 0 -27 -5 -31 -11 -4 -8 -9 -7 -15 2 -7 11 -9 11 -9 1 0 -9 -9
-12 -29 -9 -16 3 -40 -1 -54 -8 -15 -7 -30 -9 -38 -4 -8 5 -22 6 -33 3 -13 -4
-16 -3 -11 6 6 9 4 11 -5 5 -7 -4 -15 -2 -20 4 -9 15 -101 23 -117 10 -8 -7
-10 -4 -6 10 4 15 1 21 -11 21 -9 0 -16 -4 -16 -10 0 -6 -9 -6 -22 -1 -13 5
-22 14 -21 20 2 6 -3 8 -11 5 -8 -3 -17 -1 -21 5 -3 6 -15 11 -26 11 -10 0
-19 6 -20 13 0 6 -4 3 -8 -8 -5 -11 -19 -20 -37 -22 -16 -2 -41 -4 -56 -6 -15
-1 -30 -5 -33 -9 -4 -4 -18 -2 -32 3 -14 5 -28 7 -33 4 -4 -2 -33 2 -65 11
-32 8 -75 14 -96 12 -21 -1 -42 1 -45 5 -4 4 -13 2 -21 -4 -9 -8 -13 -8 -13
-1 0 7 -11 8 -32 1 -22 -6 -34 -6 -36 1 -2 6 -9 7 -15 3 -16 -10 -167 -11
-167 -1 0 13 -40 9 -40 -4 0 -7 -5 -5 -11 6 -9 15 -13 16 -21 5 -7 -11 -11
-11 -15 -1 -2 6 -9 12 -14 12 -6 0 -7 -4 -4 -10 9 -14 -123 -4 -142 11 -8 7
-31 13 -51 13 -31 1 -38 5 -40 26 -2 13 1 41 7 61 7 22 8 46 3 60 -8 20 -9 19
-14 -17z"/>
<path d="M2480 689 c0 -5 5 -7 10 -4 6 3 10 8 10 11 0 2 -4 4 -10 4 -5 0 -10
-5 -10 -11z"/>
</g>
</svg>
